<svg width="14" height="15" viewBox="0 0 14 15" fill="none" xmlns="http://www.w3.org/2000/svg">
<path opacity="1" d="M7 0.96875C8.20312 0.96875 9.35156 1.29688 10.3906 1.89844C11.4297 2.5 12.25 3.32031 12.8516 4.35938C13.4531 5.39844 13.7812 6.54688 13.7812 7.75C13.7812 8.98047 13.4531 10.1016 12.8516 11.1406C12.25 12.1797 11.4297 13.0273 10.3906 13.6289C9.35156 14.2305 8.20312 14.5312 7 14.5312C5.76953 14.5312 4.64844 14.2305 3.60938 13.6289C2.57031 13.0273 1.72266 12.1797 1.12109 11.1406C0.519531 10.1016 0.21875 8.98047 0.21875 7.75C0.21875 6.54688 0.519531 5.39844 1.12109 4.35938C1.72266 3.32031 2.57031 2.5 3.60938 1.89844C4.64844 1.29688 5.76953 0.96875 7 0.96875ZM7 13.2188C7.98438 13.2188 8.88672 12.9727 9.73438 12.4805C10.5547 11.9883 11.2383 11.332 11.7305 10.4844C12.2227 9.66406 12.4688 8.73438 12.4688 7.75C12.4688 6.76562 12.2227 5.86328 11.7305 5.01562C11.2383 4.19531 10.5547 3.51172 9.73438 3.01953C8.88672 2.52734 7.98438 2.28125 7 2.28125C6.01562 2.28125 5.08594 2.52734 4.26562 3.01953C3.41797 3.51172 2.76172 4.19531 2.26953 5.01562C1.77734 5.86328 1.53125 6.76562 1.53125 7.75C1.53125 8.73438 1.77734 9.66406 2.26953 10.4844C2.76172 11.332 3.41797 11.9883 4.26562 12.4805C5.08594 12.9727 6.01562 13.2188 7 13.2188ZM8.69531 10.375C8.75 10.4297 8.83203 10.457 8.94141 10.4297C9.02344 10.4297 9.10547 10.375 9.16016 10.293L9.65234 9.58203C9.70703 9.52734 9.70703 9.44531 9.70703 9.33594C9.70703 9.25391 9.65234 9.17188 9.59766 9.11719L7.76562 7.80469V3.92188C7.76562 3.83984 7.71094 3.75781 7.65625 3.70312C7.60156 3.64844 7.51953 3.59375 7.4375 3.59375H6.5625C6.45312 3.59375 6.37109 3.64844 6.31641 3.70312C6.26172 3.75781 6.23438 3.83984 6.23438 3.92188V8.40625C6.23438 8.51562 6.26172 8.625 6.37109 8.67969L8.69531 10.375Z" fill="#FFFFFF"/>
</svg>
