<svg width="16" height="19" viewBox="0 0 16 19" fill="none" xmlns="http://www.w3.org/2000/svg">
<path fill-rule="evenodd" clip-rule="evenodd" d="M14.2601 18.7942H1.7402C0.779031 18.7942 0 18.0149 0 17.054V8.00638C0 7.04521 0.779031 6.26618 1.7402 6.26618H2.07519V5.92481H2.08621C2.08737 2.65265 4.7406 0 8.01305 0C11.2864 0 13.9115 2.65352 13.9115 5.92684C13.9115 6.04662 13.9161 6.15771 13.9164 6.26618H14.2598C15.221 6.26618 16 7.04521 16 8.00638V17.054C16.0003 18.0152 15.2215 18.7942 14.2601 18.7942ZM8.02494 2.08911C5.91031 2.08911 4.19621 3.80321 4.19534 5.91727H4.18809V6.26618H11.8374V6.23863C11.8473 6.13769 11.8548 6.03328 11.8548 5.91872C11.8545 3.80379 10.1399 2.08911 8.02494 2.08911ZM13.9222 9.05862C13.9222 8.67404 13.6104 8.36254 13.2261 8.36254H2.77591C2.39162 8.36254 2.07983 8.67404 2.07983 9.05862V16.0133C2.07983 16.3979 2.39162 16.7094 2.77591 16.7094H13.2261C13.6104 16.7094 13.9222 16.3976 13.9222 16.0133V9.05862ZM8.16967 14.6113H7.82163C7.34278 14.6113 6.95472 14.2233 6.95472 13.7444V11.3394C6.95472 10.8606 7.34278 10.4725 7.82163 10.4725H8.16967C8.64852 10.4725 9.03658 10.8606 9.03658 11.3394V13.7444C9.03687 14.2233 8.64852 14.6113 8.16967 14.6113Z" fill="#263348" fill-opacity="0.4"/>
</svg>
